<svg width="1015" height="580" viewBox="0 0 1015 580" fill="none" xmlns="http://www.w3.org/2000/svg">
<path d="M400.75 437.063H254.15C244.65 437.063 235.95 431.963 231.35 423.763L163.25 302.763C158.75 294.763 158.75 285.063 163.25 277.063L231.35 156.063C235.95 147.863 244.75 142.763 254.15 142.763H337.45C346.95 142.763 355.65 137.663 360.25 129.463L422.05 19.563C426.95 10.863 420.65 0.0629883 410.65 0.0629883H186.05C167.15 0.0629883 149.65 10.263 140.45 26.763L6.75 264.163C-2.25 280.063 -2.25 299.563 6.75 315.563L140.35 553.063C149.65 569.563 167.05 579.763 185.95 579.763H473.85C483.85 579.763 490.15 568.963 485.25 560.263L423.55 450.363C418.95 442.163 410.25 437.063 400.75 437.063Z" fill="black"/>
<path d="M795.45 103.563L738.65 6.46298C733.55 -2.23702 720.95 -2.13702 715.95 6.66298L474.85 434.963C470.35 442.963 470.35 452.663 474.85 460.663L537.65 572.963C542.65 581.863 555.45 581.863 560.45 573.063L795.85 155.663C804.95 139.463 804.85 119.663 795.45 103.563Z" fill="#8F8F8F"/>
<path d="M506.05 299.963L577.35 173.063C581.95 164.963 581.85 155.063 577.15 147.063L495.65 6.56297C490.55 -2.23703 477.85 -2.13703 472.95 6.66297L403.65 129.863C399.25 137.763 399.15 147.363 403.55 155.363L483.25 299.863C488.15 308.863 501.05 308.963 506.05 299.963Z" fill="#8F8F8F"/>
<path d="M1007.05 103.563L950.25 6.46298C945.15 -2.23702 932.55 -2.13702 927.55 6.66298L686.25 434.963C681.75 442.963 681.75 452.663 686.25 460.663L749.55 572.963C754.55 581.863 767.35 581.863 772.35 572.963L1007.55 155.563C1016.65 139.463 1016.45 119.663 1007.05 103.563Z" fill="#8F8F8F"/>
</svg>
