<svg width="178" height="96" viewBox="0 0 178 96" fill="none" xmlns="http://www.w3.org/2000/svg">
<path fill-rule="evenodd" clip-rule="evenodd" d="M36.2295 0H73.6265L91.8968 32.1901L56.0905 95.0582H18.6873L0 62.4647L36.2295 0ZM37.7594 8.1253L6.2335 62.4803L20.2438 86.9162L51.4152 32.1855L37.7594 8.1253ZM56.0905 34.8878L24.8965 89.6582H52.9516L84.1458 34.8878H56.0905ZM84.1538 29.4878H56.0932L42.4218 5.4H70.4822L84.1538 29.4878Z" fill="black"/>
<path fill-rule="evenodd" clip-rule="evenodd" d="M177.779 62.873L159.08 95.2602L122.068 94.9872L85.5248 32.5438L104.227 0.151733L141.798 0.265034L177.779 62.873ZM169.977 60.1353L138.667 5.65563L110.5 5.57063L142.313 59.9315L169.977 60.1353ZM137.635 62.6293L105.799 8.22903L91.7708 32.5255L123.607 86.9262L137.635 62.6293ZM128.28 89.6322L142.31 65.3316L170.006 65.5357L155.976 89.8362L128.28 89.6322Z" fill="black"/>
</svg>
