<svg width="114" height="124" viewBox="0 0 114 124" fill="none" xmlns="http://www.w3.org/2000/svg">
<path d="M31.5 13C6.1 27.9 4.5 29 1.9 33.2C0.100002 36.2 0 38.5 0 65.5C0 87.2 0.299999 94.9 1.3 96.1C3.2 98.6 48 124 49.8 123.7C51.3 123.4 51.5 120.6 51.8 96C52 74.1 51.8 68.2 50.7 66.5C49.9 65.3 40.8 59.7 30.5 53.9C20.2 48.1 11.1 42.4 10.3 41.2C8.5 38.6 9.4 35.3 12.1 33.8C13.7 33 18.4 33.8 33.9 37.8C44.8 40.6 55 42.9 56.6 42.9C61 42.9 106.5 17 106.5 14.5C106.5 12.9 103.1 11.7 82.5 6.3C69.3 2.8 57.4 0 56 0C54.6 0.1 43.6 5.9 31.5 13Z" fill="black"/>
<path d="M94.2 30L90.9 32.1L97.2 35.8C100.7 37.8 103.5 40.1 103.5 40.9C103.5 41.8 95.5 47 84.1 53.5C73.5 59.5 64.1 65.4 63.4 66.4C62.2 68 62 73.6 62.2 95.8C62.5 120.6 62.7 123.4 64.2 123.7C66 124 110.8 98.6 112.8 96.1C113.7 94.9 114 87.3 114 65.9C114 44.5 113.7 36.9 112.8 35.7C111.2 33.8 100.7 27.9 98.9 27.9C98.1 27.9 96 28.9 94.2 30Z" fill="black"/>
</svg>
